<?xml version="1.0" encoding="UTF-8"?>
<svg width="61px" height="45px" viewBox="0 0 61 45" version="1.1" xmlns="http://www.w3.org/2000/svg" xmlns:xlink="http://www.w3.org/1999/xlink">
    <!-- Generator: sketchtool 50.2 (55047) - http://www.bohemiancoding.com/sketch -->
    <title>08561A9B-F0CA-4847-8E41-1869F9233FB5</title>
    <desc>Created with sketchtool.</desc>
    <defs></defs>
    <g id="Page-1" stroke="none" stroke-width="1" fill="none" fill-rule="evenodd" opacity="0.3">
        <g id="Coin_bot_club_registration_1_step-1280" transform="translate(-706.000000, -264.000000)" fill="#3B84C9">
            <path d="M722.984,308.768 C711.72,308.768 706.152,298.336 706.152,286.688 C706.152,274.976 711.72,264.672 722.984,264.672 C734.248,264.672 739.816,274.976 739.816,286.688 C739.816,298.336 734.248,308.768 722.984,308.768 Z M722.984,298.08 C726.312,298.08 727.528,294.752 727.528,286.688 C727.528,278.56 726.312,275.36 722.984,275.36 C719.656,275.36 718.44,278.56 718.44,286.688 C718.44,294.752 719.656,298.08 722.984,298.08 Z M766.376,308 L754.216,308 L754.216,280.736 L747.88,287.072 L741.032,279.968 L755.944,265.312 L766.376,265.312 L766.376,308 Z" id="01"></path>
        </g>
    </g>
</svg>