<?xml version="1.0" encoding="UTF-8"?>
<svg width="69px" height="45px" viewBox="0 0 69 45" version="1.1" xmlns="http://www.w3.org/2000/svg" xmlns:xlink="http://www.w3.org/1999/xlink">
    <!-- Generator: sketchtool 50.2 (55047) - http://www.bohemiancoding.com/sketch -->
    <title>190C75F1-3312-48B2-BEBC-6C6558EBD4F2</title>
    <desc>Created with sketchtool.</desc>
    <defs></defs>
    <g id="Page-1" stroke="none" stroke-width="1" fill="none" fill-rule="evenodd" opacity="0.3">
        <g id="Coin_bot_club_registration_1_step-1280" transform="translate(-926.000000, -264.000000)" fill="#3B84C9">
            <path d="M942.984,308.768 C931.72,308.768 926.152,298.336 926.152,286.688 C926.152,274.976 931.72,264.672 942.984,264.672 C954.248,264.672 959.816,274.976 959.816,286.688 C959.816,298.336 954.248,308.768 942.984,308.768 Z M942.984,298.08 C946.312,298.08 947.528,294.752 947.528,286.688 C947.528,278.56 946.312,275.36 942.984,275.36 C939.656,275.36 938.44,278.56 938.44,286.688 C938.44,294.752 939.656,298.08 942.984,298.08 Z M994.696,308 L963.272,308 L963.272,298.272 C980.488,284 982.152,282.336 982.152,279.008 C982.152,276.96 980.424,275.36 977.736,275.36 C974.152,275.36 971.208,276.832 968.584,279.584 L961.672,271.84 C965.768,267.04 971.656,264.672 977.928,264.672 C987.848,264.672 994.376,270.368 994.376,278.816 C994.376,284.64 991.176,289.248 981.384,297.44 L994.696,297.44 L994.696,308 Z" id="02"></path>
        </g>
    </g>
</svg>