<?xml version="1.0" encoding="UTF-8"?>
<svg width="69px" height="45px" viewBox="0 0 69 45" version="1.1" xmlns="http://www.w3.org/2000/svg" xmlns:xlink="http://www.w3.org/1999/xlink">
    <!-- Generator: sketchtool 50.2 (55047) - http://www.bohemiancoding.com/sketch -->
    <title>2FF1E43C-CEEE-4E85-8304-8E5FC8DDADA4</title>
    <desc>Created with sketchtool.</desc>
    <defs></defs>
    <g id="Page-1" stroke="none" stroke-width="1" fill="none" fill-rule="evenodd" opacity="0.3">
        <g id="Coin_bot_club_registration_1_step-1280" transform="translate(-1145.000000, -264.000000)" fill="#3B84C9">
            <path d="M1161.984,308.768 C1150.72,308.768 1145.152,298.336 1145.152,286.688 C1145.152,274.976 1150.72,264.672 1161.984,264.672 C1173.248,264.672 1178.816,274.976 1178.816,286.688 C1178.816,298.336 1173.248,308.768 1161.984,308.768 Z M1161.984,298.08 C1165.312,298.08 1166.528,294.752 1166.528,286.688 C1166.528,278.56 1165.312,275.36 1161.984,275.36 C1158.656,275.36 1157.44,278.56 1157.44,286.688 C1157.44,294.752 1158.656,298.08 1161.984,298.08 Z M1197.312,308.768 C1189.76,308.768 1183.936,305.952 1180.736,302.048 L1187.584,294.24 C1190.08,296.736 1193.664,298.08 1196.8,298.08 C1200.512,298.08 1202.048,296.48 1202.048,294.816 C1202.048,292.64 1200.32,291.808 1196.416,291.808 C1194.944,291.808 1192.576,291.808 1191.872,291.872 L1191.872,281.12 C1192.512,281.184 1195.136,281.184 1196.16,281.184 C1199.68,281.184 1201.472,280.224 1201.472,278.432 C1201.472,276.32 1199.424,275.36 1196.288,275.36 C1193.344,275.36 1190.016,276.448 1187.84,278.816 L1181.312,271.712 C1184.896,267.232 1190.336,264.672 1197.312,264.672 C1207.296,264.672 1213.312,268.96 1213.312,276.448 C1213.312,280.928 1209.664,285.152 1204.8,285.984 C1209.664,286.688 1213.952,290.592 1213.952,296.032 C1213.952,303.712 1207.168,308.768 1197.312,308.768 Z" id="03"></path>
        </g>
    </g>
</svg>