<?xml version="1.0" encoding="UTF-8"?>
<svg width="74px" height="66px" viewBox="0 0 74 66" version="1.1" xmlns="http://www.w3.org/2000/svg" xmlns:xlink="http://www.w3.org/1999/xlink">
    <!-- Generator: sketchtool 50.2 (55047) - http://www.bohemiancoding.com/sketch -->
    <title>7D14997D-1594-49F2-B0DD-C955CE8D0C7A</title>
    <desc>Created with sketchtool.</desc>
    <defs></defs>
    <g id="Page-1" stroke="none" stroke-width="1" fill="none" fill-rule="evenodd">
        <g id="Coin_bot_club_private_cabinet_credit-hist-1280" transform="translate(-639.000000, -472.000000)" fill="#E2EAF2" fill-rule="nonzero">
            <g id="coin-stack" transform="translate(639.000000, 472.000000)">
                <path d="M21.8973854,38 C24.0154157,38 26.0626948,37.8695107 28,37.626611 L28,17.37321 C26.0628825,17.1304893 24.0154157,17 21.8973854,17 C9.80381906,17 0,21.2409905 0,26.4727327 L0,28.5270883 C1.77084829e-15,33.7586516 9.80381906,38 21.8973854,38 Z" id="Shape"></path>
                <path d="M21.8973854,50 C24.0154157,50 26.0626948,49.8643487 28,49.6122121 L28,43.4407273 C26.0623195,43.69305 24.0159787,43.8305621 21.8973854,43.8305621 C11.3410143,43.8305621 2.53015101,40.471098 0.46053928,36 C0.159143158,36.6512753 0,37.3256244 0,38.0169066 L0,40.1525313 C3.02097375e-15,45.5912384 9.80381906,50 21.8973854,50 Z" id="Shape"></path>
                <path d="M28.1775206,53.9204381 L28.1775206,53.4407273 C26.2275551,53.69305 24.1682405,53.8305621 22.0362153,53.8305621 C11.4129166,53.8305621 2.54619222,50.471098 0.463459109,46 C0.160152129,46.6510892 0,47.3254383 0,48.0167205 L0,50.1523453 C0,55.5912384 9.86597549,60 22.0362153,60 C24.4700366,60 26.8109395,59.8232253 29,59.4975876 C28.4574091,58.4040033 28.1775206,57.2506878 28.1775206,56.0558768 L28.1775206,53.9204381 Z" id="Shape"></path>
                <path d="M52.5,0 C40.6259031,0 31,4.2410266 31,9.47281344 L31,11.5271866 C31,16.7589734 40.6259031,21 52.5,21 C64.3739126,21 74,16.7589734 74,11.5271866 L74,9.47281344 C74,4.2410266 64.3739126,0 52.5,0 Z" id="Shape"></path>
                <path d="M52.5,26.8305621 C42.135202,26.8305621 33.4842348,23.4712841 31.4521816,19 C31.1562551,19.6510892 31,20.3254383 31,21.0169066 L31,23.1525313 C31,28.5912384 40.6259031,33 52.5,33 C64.3739126,33 74,28.5912384 74,23.1525313 L74,21.0169066 C74,20.3254383 73.8437449,19.6510892 73.5478184,19 C71.5157652,23.4712841 62.864798,26.8305621 52.5,26.8305621 Z" id="Shape"></path>
                <path d="M52.5,37.830458 C42.135202,37.830458 33.4842348,34.4710386 31.4521816,30 C31.1562551,30.6510806 31,31.3254207 31,32.0168798 L31,34.1524761 C31,39.591297 40.6259031,44 52.5,44 C64.3739126,44 74,39.591297 74,34.1524761 L74,32.0168798 C74,31.3254207 73.8437449,30.6510806 73.5478184,30 C71.5157652,34.4712246 62.864798,37.830458 52.5,37.830458 Z" id="Shape"></path>
                <path d="M52.5,48.8305621 C42.135202,48.8305621 33.4842348,45.471098 31.4521816,41 C31.1562551,41.6512753 31,42.3254383 31,43.0167205 L31,45.1525313 C31,50.5912384 40.6259031,55 52.5,55 C64.3739126,55 74,50.5912384 74,45.1525313 L74,43.0167205 C74,42.3254383 73.8437449,41.6509031 73.5478184,41 C71.5157652,45.4709119 62.864798,48.8305621 52.5,48.8305621 Z" id="Shape"></path>
                <path d="M52.5,59.8305621 C42.135202,59.8305621 33.4842348,56.4712841 31.4521816,52.0001861 C31.1562551,52.6514614 31,53.3259965 31,54.0169066 L31,56.1525313 C31,61.5912384 40.6259031,66 52.5,66 C64.3739126,66 74,61.5912384 74,56.1525313 L74,54.0167205 C74,53.3254383 73.8437449,52.6509031 73.5478184,52 C71.5157652,56.471098 62.864798,59.8305621 52.5,59.8305621 Z" id="Shape"></path>
            </g>
        </g>
    </g>
</svg>