<?xml version="1.0" encoding="UTF-8"?>
<svg width="224px" height="198px" viewBox="0 0 224 198" version="1.1" xmlns="http://www.w3.org/2000/svg" xmlns:xlink="http://www.w3.org/1999/xlink">
    <!-- Generator: sketchtool 50.2 (55047) - http://www.bohemiancoding.com/sketch -->
    <title>1C8D770D-EB3C-403A-A98E-85D344965BD5</title>
    <desc>Created with sketchtool.</desc>
    <defs>
        <linearGradient x1="50%" y1="22.6378676%" x2="50%" y2="100%" id="linearGradient-1">
            <stop stop-color="#6DBAE6" offset="0%"></stop>
            <stop stop-color="#3B84C9" offset="100%"></stop>
        </linearGradient>
        <path d="M905.713722,290.454007 L905.397197,290.454007 C902.956586,289.417581 903.858213,287.662724 906.976987,283.191176 C911.434599,276.795958 910.851651,271.933787 910.851651,271.933787 C910.838048,271.8219 910.822503,271.715902 910.822503,271.605978 L937.430212,271.605978 L937.430212,275.765421 L969.659486,275.765421 C969.506636,277.512551 969.247053,279.24847 968.882222,280.963253 L984.777281,280.963253 L990.738901,288.944516 L1002.32014,288.944516 L1002.32014,283.230434 L1017.65169,283.230434 L1017.65169,298.980964 L1002.32014,298.980964 L1002.32014,294.220865 L988.135064,294.220865 L982.167616,286.245491 L979.587097,286.245491 L979.587097,286.219973 L951.743538,286.219973 L951.743538,290.390855 L964.910666,290.390855 C963.708827,292.974326 962.454902,295.287031 961.393889,297.697457 L965.940813,297.697457 L977.087241,309.912449 L982.446323,309.912449 L982.446323,304.619286 L997.668971,304.619286 L997.668971,320.134362 L982.446323,320.134362 L982.446323,315.388837 L974.880333,315.388837 L963.731977,303.173845 L963.720402,303.173845 L963.720402,303.124985 L944.317253,303.124985 L944.317253,306.6832 L959.650534,306.6832 C959.89271,309.623195 961.00594,312.66165 962.699222,315.585892 C953.18794,320.392675 941.012717,321.129151 933.071676,320.983431 C933.028736,320.873234 932.991577,320.760835 932.960353,320.6467 C931.769001,315.572107 929.749562,311.190668 925.519288,311.818838 C920.529282,312.557283 917.777456,313.106686 917.777456,313.106686 C911.851946,313.953436 912.865572,308.605126 913.498355,306.714707 C914.131138,304.824288 913.467106,304.056306 911.109793,303.233186 C911.042905,303.209759 910.980473,303.184512 910.922287,303.157558 L910.208675,303.157558 C910.175992,302.938521 910.20363,302.701288 910.271515,302.458895 C910.260171,302.418471 910.251252,302.377223 910.244598,302.335237 L910.309413,302.335237 C910.678229,301.22467 911.81177,300.052914 911.81177,300.052914 L910.847212,299.458451 C908.84672,299.006497 908.873727,297.55902 909.722538,295.545582 C910.571349,293.532144 909.546988,291.632713 906.107376,290.584259 C905.97515,290.544219 905.843894,290.500788 905.713722,290.454007 Z M949.227244,254.519872 L949.227244,254.664763 L913.991357,254.664763 C922.477042,237.322129 949.082272,235.182976 962.419681,249.138786 L971.579968,249.138786 L980.415518,241.232171 L993.660144,241.232171 L993.660144,236 L1008.90925,236 L1008.90925,251.877626 L993.656278,251.877626 L993.656278,246.645455 L982.348475,246.645455 L973.551585,254.519872 L949.227244,254.519872 Z M938.42008,270.1943 L938.42008,270.389715 L911.178471,270.389715 C910.587603,264.523405 911.604215,259.535493 913.754816,255.42985 L950.020593,255.42985 L950.020593,259.578059 L969.769913,259.578059 C970.42536,261.334613 970.903751,263.14895 971.198342,264.995496 L985.235937,264.995496 L985.235937,260.079172 L1000.93473,260.079172 L1000.93473,275.338931 L985.235937,275.338931 L985.235937,270.1943 L972.280606,270.1943 L938.42008,270.1943 Z" id="path-2"></path>
        <filter x="-79.6%" y="-105.3%" width="259.3%" height="312.9%" filterUnits="objectBoundingBox" id="filter-3">
            <feOffset dx="0" dy="1" in="SourceAlpha" result="shadowOffsetOuter1"></feOffset>
            <feGaussianBlur stdDeviation="30" in="shadowOffsetOuter1" result="shadowBlurOuter1"></feGaussianBlur>
            <feColorMatrix values="0 0 0 0 0   0 0 0 0 0   0 0 0 0 0  0 0 0 0.0577728714 0" type="matrix" in="shadowBlurOuter1"></feColorMatrix>
        </filter>
    </defs>
    <g id="Page-1" stroke="none" stroke-width="1" fill="none" fill-rule="evenodd">
        <g id="Coin_bot_club_promo-code-1280" transform="translate(-848.000000, -181.000000)">
            <g id="Combined-Shape" transform="translate(960.825843, 278.500000) scale(-1, 1) translate(-960.825843, -278.500000) ">
                <use fill="black" fill-opacity="1" filter="url(#filter-3)" xlink:href="#path-2"></use>
                <use fill="url(#linearGradient-1)" fill-rule="evenodd" xlink:href="#path-2"></use>
            </g>
        </g>
    </g>
</svg>