<?xml version="1.0" encoding="UTF-8"?>
<svg width="99px" height="76px" viewBox="0 0 99 76" version="1.1" xmlns="http://www.w3.org/2000/svg" xmlns:xlink="http://www.w3.org/1999/xlink">
    <!-- Generator: sketchtool 50.2 (55047) - http://www.bohemiancoding.com/sketch -->
    <title>DE83476C-325A-4598-9A10-8ED8D639C4A8</title>
    <desc>Created with sketchtool.</desc>
    <defs>
        <linearGradient x1="-1.11022302e-14%" y1="50%" x2="100%" y2="50%" id="linearGradient-1">
            <stop stop-color="#6DBAE6" offset="0%"></stop>
            <stop stop-color="#3B84C9" offset="100%"></stop>
        </linearGradient>
    </defs>
    <g id="Page-1" stroke="none" stroke-width="1" fill="none" fill-rule="evenodd">
        <g id="Coin_bot_club_telegram-assistant" transform="translate(-911.000000, -244.000000)">
            <g id="лого" transform="translate(960.500000, 282.000000) scale(-1, 1) translate(-960.500000, -282.000000) translate(911.000000, 244.000000)">
                <rect id="Rectangle-path" x="72.8901099" y="25.6908969" width="5.43956044" height="5.43956044"></rect>
                <rect id="Rectangle-path" x="82.6813187" y="6.10847936" width="5.43956044" height="5.43956044"></rect>
                <rect id="Rectangle-path" x="90.2967033" y="45.2733145" width="4.35164835" height="5.43956044"></rect>
                <rect id="Rectangle-path" x="72.8901099" y="63.76782" width="5.43956044" height="5.43956044"></rect>
                <path d="M34.7248513,58.6876584 L52.0214,58.6876584 L52.0214,58.7303769 L52.0314825,58.7303769 L61.7426216,69.4099966 L68.3332234,69.4099966 L68.3332234,73.5590288 L81.5934066,73.5590288 L81.5934066,59.9941319 L68.3332234,59.9941319 L68.3332234,64.6219671 L63.6650205,64.6219671 L53.9555618,53.9423474 L49.9948152,53.9423474 C50.9190454,51.8349025 52.0113175,49.8128945 53.0582183,47.554155 L41.1675762,47.554155 L41.1675762,47.4491387 L1.08791209,47.4491387 C1.33235808,47.5546327 1.58198017,47.6461347 1.83569837,47.7232489 C4.83188474,48.6399163 5.72418702,50.3005971 4.98480283,52.0609545 C4.24541865,53.8213118 4.22189279,55.0868467 5.96448688,55.4819926 L6.80469618,56.0017341 C6.80469618,56.0017341 5.24526772,57.6196965 5.40826832,58.7161374 L34.7248513,58.7161374 L34.7248513,58.6876584 Z M72.4031972,64.3051384 L77.5234327,64.3051384 L77.5234327,69.7268253 L72.4031972,69.7268253 L72.4031972,64.3051384 Z" id="Shape" fill="url(#linearGradient-1)" fill-rule="nonzero"></path>
                <path d="M6.19321642,59.7822591 C8.24663124,60.5019163 8.82505796,61.1733667 8.27385133,62.8261679 C7.72264469,64.4789692 6.83969333,69.1550192 12.0013011,68.414702 C12.0013011,68.414702 14.3983694,67.9343567 18.7450761,67.2887312 C22.4299945,66.7395191 24.1890922,70.5702302 25.2268577,75.0069685 C25.2540568,75.1067568 25.2864253,75.2050278 25.3238293,75.3013737 C32.2411322,75.4287771 42.8467561,74.7848733 51.1318681,70.5822819 C49.65688,68.0256051 48.6871646,65.3690715 48.476209,62.7986213 L35.1196558,62.7986213 L35.1196558,58.9971785 L5.43956044,58.9971785 C5.49229935,59.3311821 5.70835873,59.6118139 6.19321642,59.7822591 Z" id="Shape" fill="url(#linearGradient-1)" fill-rule="nonzero"></path>
                <path d="M39.3966631,16.1920026 L60.5851717,16.1920026 L68.2479898,9.30736649 L78.0980196,9.30736649 L78.0980196,13.8818755 L91.3846154,13.8818755 L91.3846154,0 L78.1013871,0 L78.1013871,4.57450905 L66.564224,4.57450905 L58.8677306,11.487296 L50.8883646,11.487296 C39.2703807,-0.714327182 16.0950285,1.15594325 8.7032967,16.3186813 L39.3966631,16.3186813 L39.3966631,16.1920026 Z M82.1794679,4.2595717 L87.3099022,4.2595717 L87.3099022,9.62054442 L82.1794679,9.62054442 L82.1794679,4.2595717 Z" id="Shape" fill="url(#linearGradient-1)" fill-rule="nonzero"></path>
                <path d="M29.9827311,29.8962216 L59.4780442,29.8962216 L70.7632075,29.8962216 L70.7632075,34.3941936 L84.4381497,34.3941936 L84.4381497,21.0525219 L70.7632075,21.0525219 L70.7632075,25.3508848 L58.5353033,25.3508848 C58.27869,23.7364423 57.8619721,22.1501593 57.291024,20.6143968 L40.0877353,20.6143968 L40.0877353,16.9876002 L8.49724984,16.9876002 C6.62389887,20.5771815 5.73834629,24.9381337 6.25304123,30.0670735 L29.9827311,30.0670735 L29.9827311,29.8962216 Z M74.2915652,25.149584 L79.5719541,25.149584 L79.5719541,30.3038979 L74.2915652,30.3038979 L74.2915652,25.149584 Z" id="Shape" fill="url(#linearGradient-1)" fill-rule="nonzero"></path>
                <path d="M41.5885631,43.9075347 L65.8426017,43.9075347 L65.8426017,43.9298453 L68.0904461,43.9298453 L73.2885864,50.9027486 L85.6449603,50.9027486 L85.6449603,55.0645233 L99,55.0645233 L99,41.2937686 L85.6449603,41.2937686 L85.6449603,46.2896144 L75.5567427,46.2896144 L70.3636804,39.3115625 L56.517771,39.3115625 C56.8355694,37.8123205 57.0616875,36.2945994 57.1948326,34.7670762 L29.1204741,34.7670762 L29.1204741,31.1304574 L5.94296348,31.1304574 C5.94296348,31.2265643 5.95650471,31.3192389 5.96835329,31.4170621 C5.96835329,31.4170621 6.47614947,35.6680789 2.5932013,41.2594447 C-0.123508298,45.1689386 -0.908899734,46.7032176 1.21707363,47.609369 L41.5885631,47.609369 L41.5885631,43.9075347 Z M89.7411829,45.4521109 L94.9071627,45.4521109 L94.9071627,50.6813594 L89.7428755,50.6813594 L89.7411829,45.4521109 Z" id="Shape" fill="url(#linearGradient-1)" fill-rule="nonzero"></path>
            </g>
        </g>
    </g>
</svg>